<svg width="106" height="75" viewBox="0 0 106 75" fill="none" xmlns="http://www.w3.org/2000/svg">
<g clip-path="url(#clip0_866_413)">
<path d="M103.649 11.6225C103.041 9.37609 101.855 7.32807 100.21 5.68243C98.5642 4.03678 96.5162 2.85093 94.2698 2.24295C86.0457 0 52.9462 0 52.9462 0C52.9462 0 19.845 0.0678928 11.6209 2.31085C9.37439 2.91886 7.3264 4.10478 5.68082 5.7505C4.03525 7.39622 2.84951 9.44432 2.24169 11.6908C-0.245921 26.3036 -1.21091 48.57 2.31 62.5982C2.91788 64.8446 4.10364 66.8926 5.74922 68.5383C7.39479 70.1839 9.44275 71.3698 11.6892 71.9777C19.9133 74.2207 53.0137 74.2207 53.0137 74.2207C53.0137 74.2207 86.1135 74.2207 94.3373 71.9777C96.5838 71.3698 98.6318 70.184 100.277 68.5384C101.923 66.8927 103.109 64.8447 103.717 62.5982C106.341 47.9647 107.149 25.712 103.649 11.6225Z" fill="#FF0000"/>
<path d="M42.4106 53.0145L69.8692 37.1102L42.4106 21.2058V53.0145Z" fill="white"/>
</g>
<defs>
<clipPath id="clip0_866_413">
<rect width="106" height="74.5167" fill="white"/>
</clipPath>
</defs>
</svg>
